<svg width="385" height="88" viewBox="0 0 385 88" fill="none" xmlns="http://www.w3.org/2000/svg">
<g clip-path="url(#clip0_467_1068)">
<mask id="mask0_467_1068" style="mask-type:luminance" maskUnits="userSpaceOnUse" x="0" y="0" width="385" height="88">
<path d="M385 0H0V88H385V0Z" fill="white"/>
</mask>
<g mask="url(#mask0_467_1068)">
<path d="M385 0H0V88H385V0Z" fill="#2C612F"/>
<path d="M385 0H0V88H385V0Z" fill="url(#paint0_radial_467_1068)" fill-opacity="0.6"/>
<g opacity="0.65" filter="url(#filter0_f_467_1068)">
<path fill-rule="evenodd" clip-rule="evenodd" d="M111.347 35.6228C151.009 57.667 209.015 49.1738 230.965 88.9125C255.253 132.884 248.592 191.777 220.732 233.655C193.951 273.912 142.319 284.869 94.8085 293.578C52.1601 301.396 10.1351 297.096 -29.4684 279.522C-74.979 259.325 -135.081 238.424 -141.005 188.932C-146.904 139.646 -81.2632 116.551 -53.9401 75.0725C-29.8623 38.5206 -35.6231 -25.4634 6.9115 -35.6153C49.5563 -45.7936 73.0569 14.3416 111.347 35.6228Z" fill="#20A471"/>
</g>
<g opacity="0.75" filter="url(#filter1_f_467_1068)">
<path fill-rule="evenodd" clip-rule="evenodd" d="M332.217 262.301C293.589 260.201 253.893 255.317 227.782 226.721C199.552 195.803 185.551 152.726 194.871 111.877C204.187 71.0419 233.315 31.0675 274.306 22.8078C310.373 15.5401 331.935 59.2082 363.663 77.865C389.371 92.9816 423.695 92.907 438.039 119.086C458.358 156.168 477.027 204.906 451.904 238.906C426.46 273.342 374.92 264.623 332.217 262.301Z" fill="#20A471"/>
</g>
<g opacity="0.5" filter="url(#filter2_f_467_1068)">
<g style="mix-blend-mode:color-dodge">
<path fill-rule="evenodd" clip-rule="evenodd" d="M25.4644 -39.9253C-7.15878 -71.5039 -65.344 -78.3935 -76.3169 -122.436C-88.4586 -171.17 -66.8832 -226.25 -29.2174 -259.404C6.99051 -291.275 59.656 -288.42 107.765 -284.468C150.95 -280.92 190.417 -265.845 224.132 -238.593C262.877 -207.277 315.527 -171.486 308.519 -122.202C301.54 -73.1229 232.229 -67.9118 195.184 -35.0033C162.539 -6.00338 151.647 57.2182 107.972 55.9516C64.1829 54.6817 56.9583 -9.43974 25.4644 -39.9253Z" fill="white"/>
</g>
</g>
<g filter="url(#filter3_f_467_1068)">
<path fill-rule="evenodd" clip-rule="evenodd" d="M188.082 0.678574C155.276 -1.12776 121.563 -5.32781 99.3885 -29.9233C75.4135 -56.5155 63.5228 -93.5648 71.4379 -128.698C79.3502 -163.82 104.088 -198.201 138.899 -205.305C169.53 -211.556 187.842 -173.998 214.787 -157.952C236.62 -144.95 265.77 -145.014 277.953 -122.498C295.209 -90.6045 311.063 -48.6858 289.727 -19.4429C268.118 10.1745 224.347 2.67543 188.082 0.678574Z" fill="#2C612F"/>
</g>
</g>
</g>
<defs>
<filter id="filter0_f_467_1068" x="-181.378" y="-76.7656" width="467.29" height="414.089" filterUnits="userSpaceOnUse" color-interpolation-filters="sRGB">
<feFlood flood-opacity="0" result="BackgroundImageFix"/>
<feBlend mode="normal" in="SourceGraphic" in2="BackgroundImageFix" result="shape"/>
<feGaussianBlur stdDeviation="20" result="effect1_foregroundBlur_467_1068"/>
</filter>
<filter id="filter1_f_467_1068" x="136" y="-34" width="384" height="355" filterUnits="userSpaceOnUse" color-interpolation-filters="sRGB">
<feFlood flood-opacity="0" result="BackgroundImageFix"/>
<feBlend mode="normal" in="SourceGraphic" in2="BackgroundImageFix" result="shape"/>
<feGaussianBlur stdDeviation="28" result="effect1_foregroundBlur_467_1068"/>
</filter>
<filter id="filter2_f_467_1068" x="-135.707" y="-342.825" width="500.858" height="454.796" filterUnits="userSpaceOnUse" color-interpolation-filters="sRGB">
<feFlood flood-opacity="0" result="BackgroundImageFix"/>
<feBlend mode="normal" in="SourceGraphic" in2="BackgroundImageFix" result="shape"/>
<feGaussianBlur stdDeviation="28" result="effect1_foregroundBlur_467_1068"/>
</filter>
<filter id="filter3_f_467_1068" x="-3" y="-278" width="375" height="353" filterUnits="userSpaceOnUse" color-interpolation-filters="sRGB">
<feFlood flood-opacity="0" result="BackgroundImageFix"/>
<feBlend mode="normal" in="SourceGraphic" in2="BackgroundImageFix" result="shape"/>
<feGaussianBlur stdDeviation="36" result="effect1_foregroundBlur_467_1068"/>
</filter>
<radialGradient id="paint0_radial_467_1068" cx="0" cy="0" r="1" gradientUnits="userSpaceOnUse" gradientTransform="translate(210.237 44) rotate(172.274) scale(178.996 234.083)">
<stop stop-color="white"/>
<stop offset="1" stop-color="white" stop-opacity="0"/>
</radialGradient>
<clipPath id="clip0_467_1068">
<rect width="385" height="88" fill="white"/>
</clipPath>
</defs>
</svg>
