<svg width="966" height="243" viewBox="0 0 966 243" fill="none" xmlns="http://www.w3.org/2000/svg">
<path fill-rule="evenodd" clip-rule="evenodd" d="M121.5 243C188.603 243 243 188.603 243 121.5C243 85.1911 227.073 52.6021 201.825 30.338V105.205V156.298C201.825 171.783 189.272 184.336 173.786 184.336C158.301 184.336 145.747 171.783 145.747 156.298V84.9984C145.747 80.9665 142.479 77.698 138.447 77.698C134.415 77.698 131.147 80.9665 131.147 84.9984V158.655C131.147 172.838 119.648 184.336 105.465 184.336C91.281 184.336 79.7829 172.838 79.7829 158.655V85.0047C79.7829 80.9693 76.5115 77.698 72.4761 77.698C68.4456 77.698 65.1764 80.9616 65.1694 84.9921L64.9213 228.921C64.8346 228.921 64.7481 228.919 64.6619 228.913C81.6217 237.906 100.966 243 121.5 243ZM43.5182 214.676L44.03 137.535L44.3729 85.8373C44.4717 70.9455 56.5717 58.9255 71.4638 58.9255C86.4261 58.9255 98.5554 71.0548 98.5554 86.017V158.263C98.5554 162.007 101.59 165.042 105.334 165.042C109.078 165.042 112.113 162.007 112.113 158.263V84.6073C112.113 70.4236 123.611 58.9255 137.795 58.9255C151.979 58.9255 163.477 70.4236 163.477 84.6073V157.736C163.477 161.771 166.748 165.042 170.784 165.042C174.814 165.042 178.084 161.779 178.09 157.748L178.339 14.0871C161.379 5.09396 142.034 0 121.5 0C54.3974 0 0 54.3974 0 121.5C0 158.92 16.9161 192.388 43.5182 214.676Z" fill="white"/>
<path d="M310.912 165C309.872 165 308.988 164.636 308.26 163.908C307.532 163.18 307.168 162.296 307.168 161.256V59.7C307.168 58.556 307.532 57.62 308.26 56.892C308.988 56.164 309.872 55.8 310.912 55.8H378.616C379.76 55.8 380.696 56.164 381.424 56.892C382.152 57.62 382.516 58.556 382.516 59.7V70.62C382.516 71.764 382.152 72.7 381.424 73.428C380.696 74.052 379.76 74.364 378.616 74.364H328.54V104.004H375.496C376.64 104.004 377.576 104.368 378.304 105.096C379.032 105.824 379.396 106.76 379.396 107.904V118.824C379.396 119.864 379.032 120.748 378.304 121.476C377.576 122.204 376.64 122.568 375.496 122.568H328.54V161.256C328.54 162.296 328.176 163.18 327.448 163.908C326.72 164.636 325.784 165 324.64 165H310.912ZM412.342 166.56C406.934 166.56 402.046 165.52 397.678 163.44C393.31 161.256 389.826 158.396 387.226 154.86C384.73 151.22 383.482 147.164 383.482 142.692C383.482 135.412 386.394 129.64 392.218 125.376C398.146 121.008 405.946 118.096 415.618 116.64L436.99 113.52V110.244C436.99 105.876 435.898 102.496 433.714 100.104C431.53 97.712 427.786 96.516 422.482 96.516C418.738 96.516 415.67 97.296 413.278 98.856C410.99 100.312 409.274 102.288 408.13 104.784C407.298 106.136 406.102 106.812 404.542 106.812H392.218C391.074 106.812 390.19 106.5 389.566 105.876C389.046 105.252 388.786 104.42 388.786 103.38C388.89 101.716 389.566 99.688 390.814 97.296C392.062 94.904 394.038 92.616 396.742 90.432C399.446 88.144 402.93 86.22 407.194 84.66C411.458 83.1 416.606 82.32 422.638 82.32C429.19 82.32 434.702 83.152 439.174 84.816C443.75 86.376 447.39 88.508 450.094 91.212C452.798 93.916 454.774 97.088 456.022 100.728C457.27 104.368 457.894 108.216 457.894 112.272V161.256C457.894 162.296 457.53 163.18 456.802 163.908C456.074 164.636 455.19 165 454.15 165H441.514C440.37 165 439.434 164.636 438.706 163.908C438.082 163.18 437.77 162.296 437.77 161.256V155.172C436.418 157.148 434.598 159.02 432.31 160.788C430.022 162.452 427.214 163.856 423.886 165C420.662 166.04 416.814 166.56 412.342 166.56ZM417.646 151.74C421.286 151.74 424.562 150.96 427.474 149.4C430.49 147.84 432.83 145.448 434.494 142.224C436.262 138.896 437.146 134.736 437.146 129.744V126.468L421.546 128.964C415.41 129.9 410.834 131.408 407.818 133.488C404.802 135.568 403.294 138.116 403.294 141.132C403.294 143.42 403.97 145.396 405.322 147.06C406.778 148.62 408.598 149.816 410.782 150.648C412.966 151.376 415.254 151.74 417.646 151.74ZM506.768 166.56C499.28 166.56 492.676 165.156 486.956 162.348C481.34 159.54 476.92 155.484 473.696 150.18C470.576 144.772 468.86 138.272 468.548 130.68C468.444 129.12 468.392 127.092 468.392 124.596C468.392 121.996 468.444 119.864 468.548 118.2C468.86 110.608 470.576 104.16 473.696 98.856C476.92 93.448 481.34 89.34 486.956 86.532C492.676 83.724 499.28 82.32 506.768 82.32C513.424 82.32 519.092 83.256 523.772 85.128C528.452 87 532.3 89.34 535.316 92.148C538.332 94.956 540.568 97.92 542.024 101.04C543.584 104.056 544.416 106.812 544.52 109.308C544.624 110.452 544.26 111.388 543.428 112.116C542.7 112.74 541.816 113.052 540.776 113.052H527.048C526.008 113.052 525.176 112.792 524.552 112.272C524.032 111.752 523.512 110.972 522.992 109.932C521.432 105.772 519.352 102.86 516.752 101.196C514.256 99.428 511.032 98.544 507.08 98.544C501.88 98.544 497.72 100.208 494.6 103.536C491.584 106.76 489.972 111.908 489.764 118.98C489.556 122.932 489.556 126.572 489.764 129.9C489.972 137.076 491.584 142.276 494.6 145.5C497.72 148.724 501.88 150.336 507.08 150.336C511.136 150.336 514.412 149.504 516.908 147.84C519.404 146.072 521.432 143.108 522.992 138.948C523.512 137.908 524.032 137.128 524.552 136.608C525.176 136.088 526.008 135.828 527.048 135.828H540.776C541.816 135.828 542.7 136.192 543.428 136.92C544.26 137.544 544.624 138.428 544.52 139.572C544.416 141.444 543.896 143.576 542.96 145.968C542.128 148.256 540.724 150.648 538.748 153.144C536.876 155.536 534.484 157.772 531.572 159.852C528.66 161.828 525.124 163.44 520.964 164.688C516.908 165.936 512.176 166.56 506.768 166.56ZM589.493 166.56C577.949 166.56 568.797 163.232 562.037 156.576C555.277 149.92 551.637 140.456 551.117 128.184C551.013 127.144 550.961 125.844 550.961 124.284C550.961 122.62 551.013 121.32 551.117 120.384C551.533 112.584 553.301 105.824 556.421 100.104C559.645 94.384 564.065 90.016 569.681 87C575.297 83.88 581.901 82.32 589.493 82.32C597.917 82.32 604.989 84.088 610.709 87.624C616.429 91.056 620.745 95.892 623.657 102.132C626.569 108.268 628.025 115.392 628.025 123.504V126.78C628.025 127.82 627.661 128.704 626.933 129.432C626.205 130.16 625.269 130.524 624.125 130.524H572.333C572.333 130.524 572.333 130.68 572.333 130.992C572.333 131.304 572.333 131.564 572.333 131.772C572.437 135.412 573.113 138.792 574.361 141.912C575.713 144.928 577.637 147.372 580.133 149.244C582.733 151.116 585.801 152.052 589.337 152.052C592.249 152.052 594.693 151.636 596.669 150.804C598.645 149.868 600.257 148.828 601.505 147.684C602.753 146.54 603.637 145.604 604.157 144.876C605.093 143.628 605.821 142.9 606.341 142.692C606.965 142.38 607.849 142.224 608.993 142.224H622.409C623.449 142.224 624.281 142.536 624.905 143.16C625.633 143.784 625.945 144.564 625.841 145.5C625.737 147.164 624.853 149.192 623.189 151.584C621.629 153.976 619.341 156.316 616.325 158.604C613.309 160.892 609.513 162.816 604.937 164.376C600.465 165.832 595.317 166.56 589.493 166.56ZM572.333 117.42H606.809V116.952C606.809 112.896 606.133 109.36 604.781 106.344C603.429 103.328 601.453 100.936 598.853 99.168C596.253 97.4 593.133 96.516 589.493 96.516C585.853 96.516 582.733 97.4 580.133 99.168C577.533 100.936 575.557 103.328 574.205 106.344C572.957 109.36 572.333 112.896 572.333 116.952V117.42ZM653.511 165C652.471 165 651.587 164.636 650.859 163.908C650.131 163.18 649.767 162.296 649.767 161.256V74.988H620.907C619.867 74.988 618.983 74.624 618.255 73.896C617.527 73.168 617.163 72.284 617.163 71.244V59.7C617.163 58.556 617.527 57.62 618.255 56.892C618.983 56.164 619.867 55.8 620.907 55.8H700.467C701.611 55.8 702.547 56.164 703.275 56.892C704.003 57.62 704.367 58.556 704.367 59.7V71.244C704.367 72.284 704.003 73.168 703.275 73.896C702.547 74.624 701.611 74.988 700.467 74.988H671.763V161.256C671.763 162.296 671.399 163.18 670.671 163.908C669.943 164.636 669.007 165 667.863 165H653.511ZM732.29 166.56C725.946 166.56 720.434 165.156 715.754 162.348C711.178 159.436 707.642 155.38 705.146 150.18C702.65 144.876 701.402 138.636 701.402 131.46V87.624C701.402 86.584 701.766 85.7 702.494 84.972C703.222 84.244 704.106 83.88 705.146 83.88H718.874C720.018 83.88 720.902 84.244 721.526 84.972C722.254 85.7 722.618 86.584 722.618 87.624V130.524C722.618 143.42 728.286 149.868 739.622 149.868C745.03 149.868 749.294 148.152 752.414 144.72C755.638 141.288 757.25 136.556 757.25 130.524V87.624C757.25 86.584 757.614 85.7 758.342 84.972C759.07 84.244 759.954 83.88 760.994 83.88H774.722C775.762 83.88 776.646 84.244 777.374 84.972C778.102 85.7 778.466 86.584 778.466 87.624V161.256C778.466 162.296 778.102 163.18 777.374 163.908C776.646 164.636 775.762 165 774.722 165H762.086C760.942 165 760.006 164.636 759.278 163.908C758.654 163.18 758.342 162.296 758.342 161.256V154.86C755.534 158.5 752.05 161.36 747.89 163.44C743.73 165.52 738.53 166.56 732.29 166.56ZM796.577 165C795.537 165 794.653 164.636 793.925 163.908C793.197 163.18 792.833 162.296 792.833 161.256V87.624C792.833 86.584 793.197 85.7 793.925 84.972C794.653 84.244 795.537 83.88 796.577 83.88H809.369C810.409 83.88 811.293 84.244 812.021 84.972C812.749 85.7 813.113 86.584 813.113 87.624V94.02C815.817 90.692 819.249 87.936 823.409 85.752C827.673 83.464 832.925 82.32 839.165 82.32C845.509 82.32 851.021 83.776 855.701 86.688C860.381 89.496 863.969 93.5 866.465 98.7C869.065 103.9 870.365 110.14 870.365 117.42V161.256C870.365 162.296 870.001 163.18 869.273 163.908C868.545 164.636 867.661 165 866.621 165H852.893C851.853 165 850.969 164.636 850.241 163.908C849.513 163.18 849.149 162.296 849.149 161.256V118.356C849.149 112.324 847.641 107.592 844.625 104.16C841.713 100.728 837.449 99.012 831.833 99.012C826.425 99.012 822.109 100.728 818.885 104.16C815.661 107.592 814.049 112.324 814.049 118.356V161.256C814.049 162.296 813.685 163.18 812.957 163.908C812.229 164.636 811.345 165 810.305 165H796.577ZM918.884 166.56C907.34 166.56 898.188 163.232 891.428 156.576C884.668 149.92 881.028 140.456 880.508 128.184C880.404 127.144 880.352 125.844 880.352 124.284C880.352 122.62 880.404 121.32 880.508 120.384C880.924 112.584 882.692 105.824 885.812 100.104C889.036 94.384 893.456 90.016 899.072 87C904.688 83.88 911.292 82.32 918.884 82.32C927.308 82.32 934.38 84.088 940.1 87.624C945.82 91.056 950.136 95.892 953.048 102.132C955.96 108.268 957.416 115.392 957.416 123.504V126.78C957.416 127.82 957.052 128.704 956.324 129.432C955.596 130.16 954.66 130.524 953.516 130.524H901.724C901.724 130.524 901.724 130.68 901.724 130.992C901.724 131.304 901.724 131.564 901.724 131.772C901.828 135.412 902.504 138.792 903.752 141.912C905.104 144.928 907.028 147.372 909.524 149.244C912.124 151.116 915.192 152.052 918.728 152.052C921.64 152.052 924.084 151.636 926.06 150.804C928.036 149.868 929.648 148.828 930.896 147.684C932.144 146.54 933.028 145.604 933.548 144.876C934.484 143.628 935.212 142.9 935.732 142.692C936.356 142.38 937.24 142.224 938.384 142.224H951.8C952.84 142.224 953.672 142.536 954.296 143.16C955.024 143.784 955.336 144.564 955.232 145.5C955.128 147.164 954.244 149.192 952.58 151.584C951.02 153.976 948.732 156.316 945.716 158.604C942.7 160.892 938.904 162.816 934.328 164.376C929.856 165.832 924.708 166.56 918.884 166.56ZM901.724 117.42H936.2V116.952C936.2 112.896 935.524 109.36 934.172 106.344C932.82 103.328 930.844 100.936 928.244 99.168C925.644 97.4 922.524 96.516 918.884 96.516C915.244 96.516 912.124 97.4 909.524 99.168C906.924 100.936 904.948 103.328 903.596 106.344C902.348 109.36 901.724 112.896 901.724 116.952V117.42Z" fill="white"/>
</svg>
